<?xml version="1.0" encoding="utf-8"?><svg width="919.8" height="6525" viewBox="0 0 919.8 6525" xmlns="http://www.w3.org/2000/svg" xmlns:xlink="http://www.w3.org/1999/xlink"><svg width="30.607" height="30.607" viewBox="0 0 30.607 30.607" id="book"><path d="M30.607 6.343c0-1.433-1.256-2.598-2.8-2.602-.186-1.27-1.364-2.252-2.786-2.252a2.95 2.95 0 0 0-1.466.385 2.93 2.93 0 0 0-1.717-.545c-1.055 0-2.02.556-2.495 1.41a2.936 2.936 0 0 0-.737-.09c-1.55 0-2.81 1.166-2.81 2.6 0 .103.007.206.02.307-.606.494-.95 1.192-.95 1.948 0 1.07.694 2.016 1.752 2.412.248 1.22 1.394 2.114 2.76 2.114a2.99 2.99 0 0 0 1.31-.302c.49.348 1.086.538 1.705.538.84 0 1.623-.344 2.154-.933.362.15.755.23 1.15.23 1.548 0 2.808-1.167 2.808-2.604 0-.033 0-.067-.002-.1 1.223-.292 2.105-1.323 2.105-2.517zm-2.53 1.886l-.37.043.068.365c.02.116.033.22.033.32 0 1.052-.947 1.906-2.11 1.906-.382 0-.755-.094-1.085-.27l-.27-.147-.18.25c-.39.545-1.053.872-1.77.872-.536 0-1.05-.186-1.445-.522l-.19-.162-.214.128a2.274 2.274 0 0 1-1.166.318c-1.092 0-1.995-.74-2.1-1.718l-.025-.232-.226-.066c-.875-.254-1.463-.982-1.463-1.813 0-.596.302-1.146.83-1.51l.193-.135-.05-.23a1.663 1.663 0 0 1-.044-.378c0-1.05.946-1.905 2.112-1.905.273 0 .545.05.8.143l.32.12.126-.317c.3-.756 1.1-1.265 1.987-1.265.55 0 1.068.19 1.467.538l.204.18.224-.156c.375-.263.82-.4 1.29-.4 1.165 0 2.11.854 2.112 1.886l-.002.433.39-.046c.09-.013.184-.02.275-.02 1.165 0 2.112.855 2.112 1.905 0 .95-.788 1.76-1.833 1.884zm-10.6 7.763c1.135 0 2.057-.772 2.057-1.72 0-.95-.922-1.72-2.057-1.72-1.133 0-2.054.77-2.054 1.72 0 .948.92 1.72 2.054 1.72zm0-2.745c.75 0 1.358.46 1.358 1.024 0 .565-.608 1.024-1.358 1.024-.746 0-1.355-.46-1.355-1.024-.002-.564.607-1.024 1.355-1.024zm-4.365 4.142c0 .713.684 1.293 1.523 1.293.84 0 1.523-.58 1.523-1.293 0-.71-.684-1.29-1.523-1.29-.84 0-1.523.58-1.523 1.29zm2.35 0c0 .326-.38.597-.826.597-.448 0-.825-.27-.825-.597 0-.322.378-.594.826-.594.447 0 .826.27.826.594zM1.142 5.59l3.396 10.518 3.316 4.068.673-5.27L5.12 4.303h.007L4.03.906.04 2.195 1.134 5.59h.007zm4.974 10.693l.266-1.108.944.716.697-1.335.11.345-.386 3.008-.987.32-1.862-2.274-.154-.48 1.372.81zM3.526 1.89l.408 1.258-2.505.808L1.02 2.7l2.505-.81z"/><path d="M20.507 15.8v-1.345l-.192-.078c-.015-.004-.088-.03-.19-.066a1.763 1.763 0 0 1-.228.855V27.35c-.867-.35-1.863-.524-2.967-.524-2.706 0-5.282 1.037-6.056 1.378V23.25l.36.397v-7.44a7.755 7.755 0 0 1 3.622-1.697c-.008-.068-.027-.135-.027-.206 0-.146.02-.29.053-.428a8.32 8.32 0 0 0-4.11 1.908 8.302 8.302 0 0 0-1.7-1.123l.022.707a7.83 7.83 0 0 1 1.216.838v7.44l.36-.396v4.96c-.785-.324-3.49-1.353-6.197-1.353-1.07 0-2.02.164-2.825.49V14.88c.28-.094.85-.26 1.592-.383l-.154-.594c-1.09.185-1.813.458-1.855.475l-.193.077V15.7c-.64.12-1.037.334-1.037.684v12.838h9.455c.327.293.805.48 1.34.48.534 0 1.013-.187 1.34-.48h9.217V16.384c0-.285-.323-.47-.845-.584z"/></svg><svg width="438.549" height="438.549" viewBox="0 0 438.549 438.549" id="circle" y="31"><path d="M409.132 114.573c-19.608-33.596-46.205-60.194-79.798-79.8C295.736 15.166 259.057 5.365 219.27 5.365c-39.78 0-76.47 9.804-110.062 29.408-33.596 19.605-60.192 46.204-79.8 79.8C9.803 148.168 0 184.853 0 224.63c0 47.78 13.94 90.745 41.827 128.906 27.884 38.164 63.906 64.572 108.063 79.227 5.14.954 8.945.283 11.42-1.996 2.474-2.282 3.71-5.14 3.71-8.562 0-.57-.05-5.708-.144-15.417a2549.81 2549.81 0 0 1-.144-25.406l-6.567 1.136c-4.187.767-9.47 1.092-15.846 1-6.375-.09-12.992-.757-19.843-2-6.854-1.23-13.23-4.085-19.13-8.558-5.898-4.473-10.085-10.328-12.56-17.556l-2.855-6.57c-1.903-4.374-4.9-9.233-8.992-14.56-4.093-5.33-8.232-8.944-12.42-10.847l-1.998-1.43c-1.332-.952-2.568-2.1-3.71-3.43-1.143-1.33-1.998-2.663-2.57-3.997-.57-1.335-.097-2.43 1.428-3.29 1.525-.858 4.28-1.275 8.28-1.275l5.708.853c3.807.763 8.516 3.042 14.133 6.85 5.615 3.807 10.23 8.755 13.847 14.843 4.38 7.807 9.657 13.755 15.846 17.848 6.184 4.093 12.42 6.136 18.7 6.136 6.28 0 11.703-.476 16.273-1.423 4.565-.95 8.848-2.382 12.847-4.284 1.713-12.758 6.377-22.56 13.988-29.41-10.847-1.14-20.6-2.857-29.263-5.14-8.658-2.286-17.605-5.996-26.835-11.14-9.235-5.137-16.896-11.516-22.985-19.126-6.09-7.614-11.088-17.61-14.987-29.98-3.9-12.373-5.852-26.647-5.852-42.825 0-23.035 7.52-42.637 22.557-58.817-7.044-17.318-6.38-36.732 1.997-58.24 5.52-1.715 13.706-.428 24.554 3.853 10.85 4.284 18.794 7.953 23.84 10.995 5.046 3.04 9.09 5.618 12.135 7.708 17.706-4.947 35.977-7.42 54.82-7.42s37.116 2.473 54.822 7.42l10.85-6.85c7.418-4.57 16.18-8.757 26.26-12.564 10.09-3.806 17.803-4.854 23.135-3.14 8.562 21.51 9.325 40.923 2.28 58.24 15.035 16.18 22.558 35.788 22.558 58.818 0 16.178-1.958 30.497-5.853 42.966-3.9 12.47-8.94 22.457-15.125 29.98-6.19 7.52-13.9 13.85-23.13 18.985-9.233 5.14-18.183 8.85-26.84 11.135-8.663 2.286-18.416 4.004-29.264 5.146 9.894 8.563 14.842 22.078 14.842 40.54v60.237c0 3.422 1.19 6.28 3.572 8.562 2.38 2.278 6.136 2.95 11.276 1.994 44.163-14.653 80.185-41.062 108.068-79.226 27.88-38.16 41.826-81.126 41.826-128.906-.01-39.77-9.818-76.454-29.414-110.05z"/></svg><svg viewBox="0 0 511 511" width="511" height="511" id="clock" y="470"><path d="M436.166 74.834C387.908 26.577 323.746 0 255.5 0S123.092 26.577 74.834 74.834C26.577 123.092 0 187.254 0 255.5s26.577 132.408 74.834 180.666C123.092 484.423 187.254 511 255.5 511s132.408-26.577 180.666-74.834C484.423 387.908 511 323.746 511 255.5s-26.577-132.408-74.834-180.666zM425.56 425.56C380.134 470.983 319.74 496 255.5 496s-124.635-25.016-170.06-70.44C40.017 380.134 15 319.74 15 255.5S40.016 130.865 85.44 85.44C130.866 40.017 191.26 15 255.5 15s124.635 25.016 170.06 70.44C470.983 130.866 496 191.26 496 255.5s-25.016 124.635-70.44 170.06z"/><path d="M144.856 78.86l8.148 14.113a7.497 7.497 0 0 0 10.245 2.745 7.5 7.5 0 0 0 2.744-10.245l-8.16-14.135C184.91 56.92 215.52 48.304 248 47.15V63.5a7.5 7.5 0 0 0 15 0V47.135c31.712 1.123 62.433 9.37 90.205 24.134l-8.2 14.203a7.5 7.5 0 0 0 12.99 7.5l8.193-14.19a211.463 211.463 0 0 1 5.145 3.326 7.5 7.5 0 0 0 8.345-12.466C342.888 45.017 299.948 32 255.5 32c-59.7 0-115.825 23.248-158.04 65.462C55.25 139.675 32 195.802 32 255.5c0 55.077 20.21 107.99 56.905 148.994a7.48 7.48 0 0 0 5.59 2.498 7.5 7.5 0 0 0 5.587-12.502 208.556 208.556 0 0 1-21.287-28.31l14.178-8.186a7.5 7.5 0 0 0-7.5-12.99l-14.183 8.188C56.606 325.522 48.283 294.737 47.147 263H63.5a7.5 7.5 0 0 0 0-15H47.15c1.154-32.48 9.77-63.09 24.187-90.166l14.135 8.16a7.497 7.497 0 0 0 10.245-2.744 7.5 7.5 0 0 0-2.745-10.245l-14.114-8.15a210.162 210.162 0 0 1 65.998-65.996zm296.5 52.465a7.5 7.5 0 1 0-12.464 8.344 209.35 209.35 0 0 1 3.324 5.142l-14.19 8.193a7.5 7.5 0 0 0 7.5 12.99l14.204-8.2c14.764 27.772 23.01 58.493 24.135 90.205H447.5a7.5 7.5 0 0 0 0 15h16.35c-1.154 32.48-9.77 63.09-24.187 90.166l-14.135-8.16a7.5 7.5 0 0 0-7.5 12.99l14.114 8.148a210.128 210.128 0 0 1-65.997 65.997l-8.15-14.113a7.5 7.5 0 0 0-12.99 7.5l8.162 14.135C326.09 454.08 295.48 462.696 263 463.852V447.5a7.5 7.5 0 0 0-15 0v16.354c-31.57-1.146-62.468-9.492-90.183-24.163l8.178-14.163a7.5 7.5 0 0 0-12.99-7.5l-8.18 14.167a206.335 206.335 0 0 1-20.61-14.708 7.5 7.5 0 1 0-9.45 11.648 221.566 221.566 0 0 0 28.773 19.785c.072.044.138.093.212.136.063.036.13.06.192.094C177.676 468.55 216.247 479 255.5 479c59.7 0 115.825-23.248 158.04-65.462C455.75 371.325 479 315.198 479 255.5c0-44.447-13.017-87.386-37.643-124.175zm-46.865-31.242a210.81 210.81 0 0 1 15.452 15.344 7.48 7.48 0 0 0 5.556 2.46 7.5 7.5 0 0 0 5.55-12.54 225.66 225.66 0 0 0-16.555-16.442 7.5 7.5 0 1 0-10.002 11.178z"/><path d="M232 255.5c0 12.958 10.542 23.5 23.5 23.5 10.336 0 19.128-6.71 22.266-16h19.47c3.137 9.29 11.93 16 22.265 16h56c12.96 0 23.5-10.542 23.5-23.5S388.46 232 375.5 232h-56c-10.336 0-19.128 6.71-22.266 16h-19.47A23.605 23.605 0 0 0 263 233.234v-19.47c9.29-3.137 16-11.93 16-22.265v-80c0-12.96-10.543-23.5-23.5-23.5S232 98.54 232 111.5v80c0 10.336 6.71 19.128 16 22.266v19.47c-9.29 3.136-16 11.928-16 22.264zm87.5-8.5h56c4.687 0 8.5 3.813 8.5 8.5s-3.813 8.5-8.5 8.5h-56c-4.687 0-8.5-3.813-8.5-8.5s3.813-8.5 8.5-8.5zm-64 17c-4.687 0-8.5-3.813-8.5-8.5s3.813-8.5 8.5-8.5 8.5 3.813 8.5 8.5-3.813 8.5-8.5 8.5zM247 111.5c0-4.687 3.813-8.5 8.5-8.5s8.5 3.813 8.5 8.5v80c0 4.687-3.813 8.5-8.5 8.5s-8.5-3.813-8.5-8.5v-80z"/></svg><svg viewBox="0 0 368.6 368.6" width="368.6" height="368.6" id="clock-1" y="981"><path d="M368.6 184.3c0 101.6-82.7 184.3-184.3 184.3S0 285.9 0 184.3c0-48.8 18.9-94.7 53.1-129.4l10.7 10.5C32.3 97.3 15 139.5 15 184.3c0 93.4 75.9 169.3 169.3 169.3 93.3 0 169.3-75.9 169.3-169.3 0-90.8-71.9-165.2-161.8-169.1v22.4h-15V0h7.5c101.6 0 184.3 82.7 184.3 184.3zm-179-5.3l-79-79-10.7 10.6 79 79 10.7-10.6z"/></svg><svg viewBox="0 0 297 297" width="297" height="297" id="clock-2" y="1350"><path d="M148.5 69.147c-5.636 0-10.206 4.57-10.206 10.206v32.3l-32.9-54.838c-2.9-4.835-9.17-6.4-14.003-3.5-4.833 2.9-6.4 9.168-3.5 14l51.858 86.436c.015.025.03.034.045.056 1.792 2.935 5.016 4.9 8.706 4.9 5.635 0 10.205-4.57 10.205-10.205V79.354c0-5.636-4.57-10.206-10.205-10.206z"/><path d="M148.5 0C66.622 0 .008 66.617.008 148.5S66.622 297 148.5 297s148.492-66.617 148.492-148.5S230.378 0 148.5 0zm10.206 276.182v-6.676c0-5.636-4.57-10.206-10.206-10.206s-10.206 4.57-10.206 10.206v6.676c-62.503-4.95-112.518-54.97-117.47-117.477H27.5c5.635 0 10.205-4.57 10.205-10.206s-4.57-10.207-10.206-10.207h-6.675C25.777 75.788 75.79 25.77 138.295 20.818v6.676c0 5.636 4.57 10.206 10.205 10.206s10.206-4.57 10.206-10.206v-6.676c62.503 4.95 112.518 54.97 117.47 117.477H269.5c-5.635 0-10.205 4.57-10.205 10.206s4.57 10.207 10.206 10.207h6.675c-4.952 62.505-54.966 112.524-117.47 117.475z"/></svg><svg width="16" height="16" viewBox="0 0 16 16" id="envelop" y="1647"><path d="M14.5 2h-13C.675 2 0 2.675 0 3.5v10c0 .825.675 1.5 1.5 1.5h13c.825 0 1.5-.675 1.5-1.5v-10c0-.825-.675-1.5-1.5-1.5zM6.23 8.6L2 11.895V4.057L6.23 8.6zM2.756 4h10.488L8 7.938 2.756 4zm3.64 4.777L8 10.5l1.605-1.723L12.895 13h-9.79l3.29-4.223zM9.77 8.6L14 4.057v7.838L9.77 8.6z"/></svg><svg width="16" height="16" viewBox="0 0 16 16" id="interface" y="1663"><path fill="#444" d="M14.2 14c.6-.5 1.8-1.6 1.8-3.2 0-1.4-1.2-2.6-2.8-3.3.5-.6.8-1.5.8-2.4C14 2.3 11.1 0 7.4 0 3.9 0 0 2.1 0 5.1c0 2.1 1.6 3.6 2.3 4.2-.1 1.2-.6 1.7-.6 1.7L.5 12H2c1.2 0 2.2-.3 3-.7.3 1.9 2.5 3.4 5.3 3.4h.5c.6.5 1.8 1.3 3.5 1.3h1.4l-1.1-.9s-.3-.3-.4-1.1zm-3.9-.3C8 13.7 6 12.4 6 10.9v-.2c.2-.2.4-.3.5-.5h.7c2.1 0 4-.7 5.2-1.9 1.5.5 2.6 1.5 2.6 2.5s-.9 2-1.7 2.5l-.3.2v.3c0 .5.2.8.3 1.1-1-.2-1.7-.7-1.9-1l-.1-.2h-1zM7.4 1C10.5 1 13 2.9 13 5.1s-2.6 4.1-5.8 4.1H6.1l-.1.2c-.3.4-1.5 1.2-3.1 1.5.1-.4.1-1 .1-1.8v-.3C2 8 .9 6.6.9 5.2.9 3 4.1 1 7.4 1z"/></svg><svg viewBox="0 0 31.184 31.184" width="31.184" height="31.184" id="interface-1" y="1679"><path d="M31.184 14.02c0-5.59-6.85-9.97-15.592-9.97S0 8.43 0 14.02c0 2.536 1.42 4.816 3.775 6.557L1.59 22.35c-.047.04-.083.085-.126.126-.037.023-.077.04-.112.068-.242.195-.38.484-.42.81a2.002 2.002 0 0 0 .365 1.81l.894 1.103c.396.485.975.737 1.558.737.042 0 .083-.008.125-.01.334.03.648-.043.895-.242.032-.026.054-.06.082-.088.052-.035.106-.065.156-.105l2.225-1.807 1.986-1.61c1.94.542 4.09.848 6.377.848.844 0 1.688-.042 2.518-.128 1.433 1.58 3.804 3.27 7.39 3.27.384 0 .78-.02 1.193-.06l1.33-.133-2.19-5.386c3.414-1.886 5.35-4.594 5.35-7.534zM5.114 25.182a2.54 2.54 0 0 0-.47-.905l-.894-1.102a2.533 2.533 0 0 0-.79-.648l1.485-1.205L6.6 23.977l-1.485 1.205zm2.143-1.986l-.4-.494.315-.257c.225.09.452.18.686.264l-.6.486zm1.758-2.246l6.19-5.02.28.345c.042.05.09.092.134.137l-5.87 4.763a20.255 20.255 0 0 1-.735-.225zm5.782-7.965l4.407-1.436-2.312 4.017-2.095-2.582zm9.334 7.196l-.847.408 1.845 4.536c-2.343-.094-4.303-1.085-5.83-2.95l-.352-.43-.546.07c-.918.115-1.86.174-2.806.174a21.59 21.59 0 0 1-4.397-.455l5.957-4.834c.13-.074.25-.17.362-.294l.034-.028-.007-.01c.07-.083.14-.17.2-.275l2.63-4.567c.43-.75.27-1.22-.327-1.22-.162 0-.355.035-.578.108l-5.01 1.632a1.825 1.825 0 0 0-.313.137l-.01-.01-.06.047a1.448 1.448 0 0 0-.31.25l-1.184.962-7.15 5.804C3.313 17.826 2 15.996 2 14.02 2 9.7 8.227 6.05 15.594 6.05s13.592 3.65 13.592 7.97c0 2.37-1.84 4.62-5.054 6.16z" fill="#010002"/></svg><svg viewBox="0 0 470 470" width="470" height="470" id="notebook" y="1711"><path d="M338.83 0H18.723a7.5 7.5 0 0 0-7.5 7.5v455a7.5 7.5 0 0 0 7.5 7.5H338.83c20.677 0 37.5-16.822 37.5-37.5v-395c0-20.678-16.823-37.5-37.5-37.5zm22.5 432.5c0 12.406-10.094 22.5-22.5 22.5H26.223V15H338.83c12.406 0 22.5 10.094 22.5 22.5v395z"/><path d="M51.224 37.5v305a7.5 7.5 0 0 0 15 0v-305a7.5 7.5 0 0 0-15 0zm0 335v60a7.5 7.5 0 0 0 15 0v-60a7.5 7.5 0 0 0-15 0zM298.83 70H128.723a7.5 7.5 0 0 0-7.5 7.5v90a7.5 7.5 0 0 0 7.5 7.5H298.83a7.5 7.5 0 0 0 7.5-7.5v-90a7.5 7.5 0 0 0-7.5-7.5zm-7.5 90H136.223V85H291.33v75z"/><path d="M158.724 115H268.83a7.5 7.5 0 0 0 0-15H158.723c-4.142 0-7.5 3.357-7.5 7.5s3.358 7.5 7.5 7.5zm0 30H268.83a7.5 7.5 0 0 0 0-15H158.723c-4.142 0-7.5 3.357-7.5 7.5s3.358 7.5 7.5 7.5zm300.015-17.434c-.02-.184-.05-.365-.082-.545-.01-.06-.016-.12-.028-.182a7.624 7.624 0 0 0-.166-.662l-.013-.05a7.458 7.458 0 0 0-.28-.767l-19.968-48.035a7.5 7.5 0 0 0-13.85 0l-19.97 48.034c-.106.248-.2.504-.28.766l-.012.05a7.624 7.624 0 0 0-.166.662c-.012.06-.017.122-.028.183-.03.18-.063.362-.08.546a7.443 7.443 0 0 0-.04.747V447.5c0 12.406 10.094 22.5 22.5 22.5h10c12.408 0 22.5-10.094 22.5-22.5V128.313a8.07 8.07 0 0 0-.037-.747zM436.275 455h-10c-4.136 0-7.5-3.364-7.5-7.5V435h25v12.5c0 4.136-3.364 7.5-7.5 7.5zm7.5-319.187V420h-25V135.813h25zm-21.26-15l8.76-21.07 8.76 21.07h-17.52z"/></svg><svg viewBox="0 0 490 490" width="490" height="490" id="pen" y="2181"><path d="M490 62.585c0-3.98-1.58-7.794-4.394-10.606L438.02 4.392c-5.856-5.857-15.354-5.857-21.212 0l-50.626 50.625c-18.944-.567-38.063 6.33-52.483 20.753L204.33 185.14c-5.386 5.385-8.353 12.56-8.352 20.2 0 3.515.628 6.93 1.83 10.116L48.013 365.25a15 15 0 0 0-3.86 14.578L10.73 426.625a15 15 0 0 0 1.6 19.325l5.254 5.255-13.19 13.188c-5.856 5.857-5.856 15.355 0 21.213C7.323 488.536 11.163 490 15 490s7.678-1.465 10.607-4.394l13.188-13.188 5.255 5.255a15 15 0 0 0 19.325 1.6l46.797-33.427c5.025 1.375 10.627.087 14.575-3.86l149.8-149.8c10.18 3.836 22.13 1.666 30.312-6.516l109.37-109.368c10.813-10.814 17.407-24.276 19.782-38.318l2.626 2.626c8.77 8.77 13.602 20.496 13.602 33.017 0 12.52-4.83 24.246-13.602 33.018l-83.272 83.273c-5.858 5.857-5.858 15.355 0 21.213 5.857 5.858 15.355 5.858 21.213 0l83.272-83.272c14.437-14.438 22.388-33.696 22.388-54.23s-7.95-39.793-22.388-54.23l-9.225-9.225 36.98-36.98A15.01 15.01 0 0 0 490 62.586zM56.278 447.475l-6.777-6.777a9.476 9.476 0 0 0-.1-.1l-.1-.1-6.775-6.776 21.977-30.77 22.543 22.544-30.767 21.978zm57.863-37.31l-34.307-34.308L217.24 238.45l34.31 34.31-137.41 137.405zM393.017 155.09L284.66 263.442l-58.103-58.104L334.912 96.983c9.223-9.22 21.772-13.13 33.82-11.74.668.143 1.345.238 2.025.287a40.867 40.867 0 0 1 22.26 11.454l.156.157a40.85 40.85 0 0 1 11.296 22.1c.048.682.144 1.36.285 2.03 1.393 12.047-2.52 24.598-11.74 33.82zm34.398-66.132l-12.96-12.962a46.57 46.57 0 0 0-.223-.223l-.116-.115a70.886 70.886 0 0 0-14.827-11.318l28.127-28.127 26.372 26.372-26.372 26.373z"/></svg><svg width="611.999" height="611.999" viewBox="0 0 611.999 611.999" id="pen-1" y="2671"><path d="M536.2 266.15c-5.28 0-9.563-4.283-9.563-9.563s4.283-9.562 9.563-9.562h56.655v-30.28h-43.43c-5.277 0-9.56-4.283-9.56-9.562 0-5.28 4.282-9.563 9.56-9.563h52.99c5.28 0 9.583 4.283 9.583 9.563v49.385c0 5.28-4.283 9.562-9.582 9.562H536.2v.02zm-144.43-68.528c5.28 0 9.563 4.283 9.563 9.563s-4.283 9.562-9.562 9.562H19.126v30.26h359.4c5.277 0 9.56 4.283 9.56 9.563s-4.28 9.562-9.56 9.562H9.56C4.282 266.15 0 261.848 0 256.588v-49.405c0-5.28 4.283-9.563 9.562-9.563l382.21.002zm126.92-98.53l-36.08-9.662-80.382 300.033 4.503 55.4 31.557-45.66 80.402-300.11zm-40.362-30.6l54.523 14.623c5.103 1.355 8.13 6.594 6.774 11.694l-83.29 310.87-.04-.02a9.768 9.768 0 0 1-1.354 2.968l-47.394 68.55c-1.534 2.55-4.243 4.362-7.43 4.602-5.26.418-9.862-3.525-10.26-8.785l-6.814-83.67a9.844 9.844 0 0 1 .3-3.207l83.31-310.87c1.337-5.082 6.577-8.11 11.676-6.755z"/><path d="M398.026 396.395c-4.305 3.01-10.26 1.952-13.27-2.35-3.008-4.305-1.95-10.262 2.353-13.248 2.19-1.534 4.46-2.87 6.73-3.905 10-4.62 21.376-5.26 31.735-2.47 10.358 2.77 19.9 9.004 26.275 18.027a42.104 42.104 0 0 1 3.904 6.772c2.21 4.78.12 10.46-4.66 12.67s-10.46.12-12.65-4.66a26.685 26.685 0 0 0-2.19-3.807c-3.687-5.24-9.364-8.885-15.58-10.56-6.233-1.673-13.008-1.334-18.805 1.355-1.393.62-2.67 1.378-3.844 2.175zm-7.87 73.41c1.355-5.1 6.595-8.128 11.693-6.773 5.1 1.354 8.127 6.595 6.772 11.693l-5.856 21.814c-1.354 5.1-6.594 8.127-11.693 6.77-5.1-1.354-8.128-6.594-6.772-11.693l5.857-21.812zm142.698-386.69c5.1 1.355 8.128 6.594 6.772 11.694-1.354 5.1-6.594 8.127-11.693 6.772l-13.626-3.646-13.627-3.666-13.626-3.646-13.626-3.666c-5.1-1.355-8.128-6.594-6.772-11.694l4.562-17.033L475.78 41.2l4.582-17.053 4.562-17.032c1.354-5.1 6.594-8.128 11.693-6.773l13.605 3.646 13.626 3.646 13.626 3.646 13.646 3.666c5.1 1.354 8.127 6.594 6.77 11.693l-4.58 17.033-4.562 17.033c-1.354 5.1-6.594 8.128-11.693 6.773-5.1-1.355-8.128-6.594-6.772-11.694l4.562-17.033 2.092-7.83-4.4-1.195-13.627-3.646-13.626-3.647-4.423-1.175-2.092 7.81-4.582 17.05-4.52 17.014-2.093 7.83 4.4 1.174 13.627 3.646 13.626 3.666 13.628 3.667zm44.205-38.17c1.353-5.1 6.594-8.128 11.692-6.773 5.1 1.354 8.128 6.594 6.773 11.694l-31.178 116.32c-1.354 5.1-6.594 8.128-11.693 6.773-5.1-1.355-8.128-6.595-6.772-11.694l31.177-116.32z"/><path d="M582.896 59.985c5.1 1.355 8.128 6.594 6.77 11.694-1.353 5.1-6.593 8.127-11.692 6.772l-40.897-10.957c-5.1-1.354-8.128-6.594-6.773-11.693 1.355-5.1 6.595-8.128 11.694-6.753l40.898 10.935zM343.044 488.49c5.278 0 9.562 4.284 9.562 9.564s-4.283 9.562-9.562 9.562H83.67c-5.28 0-9.563-4.282-9.563-9.562s4.303-9.563 9.562-9.563h259.374zM528.33 364.98c5.28 0 9.563 4.303 9.563 9.562 0 5.278-4.28 9.562-9.562 9.562h-23.745c-5.28 0-9.562-4.283-9.562-9.562 0-5.28 4.282-9.563 9.562-9.563h23.746zm-181.402 0c5.28 0 9.563 4.303 9.563 9.562 0 5.278-4.303 9.562-9.562 9.562H83.668c-5.278 0-9.56-4.283-9.56-9.562 0-5.28 4.302-9.563 9.56-9.563h263.26zm181.403-49.405c5.28 0 9.563 4.283 9.563 9.563s-4.28 9.562-9.562 9.562h-10.498c-5.28 0-9.562-4.28-9.562-9.562s4.282-9.563 9.562-9.563h10.5zm-168.174 0c5.277 0 9.562 4.283 9.562 9.563s-4.283 9.562-9.562 9.562H83.67c-5.28 0-9.563-4.28-9.563-9.562s4.303-9.563 9.562-9.563h276.486z"/><path d="M0 305.994c0-5.28 4.283-9.562 9.562-9.562s9.563 4.283 9.563 9.562V577.72c0 4.123 1.713 7.928 4.462 10.677l.398.438a15.025 15.025 0 0 0 10.26 4.022h543.47c4.163 0 7.948-1.692 10.678-4.4l.04-.04a15.175 15.175 0 0 0 4.402-10.68V305.994c0-5.28 4.283-9.562 9.563-9.562 5.277 0 9.58 4.283 9.58 9.562V577.72c0 9.382-3.863 17.948-10.06 24.163l-.04.04c-6.215 6.194-14.762 10.06-24.164 10.06H34.264c-9.043 0-17.35-3.585-23.506-9.422l-.697-.637C3.866 595.727 0 587.123 0 577.718V305.994z"/><path d="M528.33 414.384c5.28 0 9.563 4.283 9.563 9.562 0 5.278-4.28 9.562-9.562 9.562h-33.806c-5.28 0-9.563-4.283-9.563-9.562 0-5.278 4.284-9.562 9.564-9.562h33.807zm-182.3 0c5.28 0 9.563 4.283 9.563 9.562 0 5.278-4.283 9.562-9.562 9.562H83.67c-5.28 0-9.563-4.283-9.563-9.562 0-5.278 4.303-9.562 9.562-9.562h262.36z"/></svg><svg width="16" height="16" viewBox="0 0 16 16" id="price-tag" y="3283"><path d="M15.25 0h-6c-.412 0-.99.24-1.28.53L.53 7.97a.752.752 0 0 0 0 1.06l6.44 6.44a.752.752 0 0 0 1.06 0l7.44-7.44c.292-.292.53-.868.53-1.28v-6a.753.753 0 0 0-.75-.75zM11.5 6a1.5 1.5 0 1 1 0-3 1.5 1.5 0 0 1 0 3z"/></svg><svg width="532.337" height="532.337" viewBox="0 0 532.337 532.337" id="social" y="3299"><path d="M471.998 241.286c7.57-9.786 13.58-17.638 18.018-23.562 31.965-42.498 45.82-69.646 41.574-81.482l-1.666-2.772c-1.107-1.665-3.977-3.194-8.592-4.578-4.62-1.383-10.533-1.604-17.736-.69l-79.822.562a22.728 22.728 0 0 0-5.545.128c-1.85.28-3.048.563-3.606.832-.557.282-1.016.508-1.383.692l-1.106.832c-.924.55-1.94 1.524-3.047 2.914-1.11 1.39-2.04 3-2.773 4.853-8.684 22.356-18.568 43.146-29.656 62.363-6.838 11.457-13.123 21.396-18.844 29.792-5.73 8.415-10.533 14.603-14.414 18.568-3.88 3.972-7.393 7.166-10.53 9.56-3.147 2.41-5.546 3.42-7.204 3.054a138.055 138.055 0 0 1-4.713-1.114c-2.588-1.658-4.67-3.917-6.236-6.787-1.572-2.856-2.63-6.462-3.19-10.807-.55-4.34-.88-8.084-.966-11.23-.097-3.14-.048-7.57.142-13.305.184-5.73.275-9.602.275-11.64 0-7.014.14-14.64.418-22.864.275-8.22.508-14.737.69-19.542.185-4.798.276-9.884.276-15.245 0-5.35-.323-9.56-.974-12.613a44.18 44.18 0 0 0-2.906-8.868c-1.297-2.858-3.19-5.08-5.686-6.646-2.496-1.573-5.588-2.815-9.283-3.746-9.798-2.222-22.27-3.41-37.417-3.604-34.37-.355-56.45 1.86-66.243 6.658-3.88 2.038-7.393 4.804-10.532 8.317-3.33 4.07-3.788 6.29-1.383 6.646 11.09 1.666 18.936 5.644 23.556 11.923l1.666 3.323c1.29 2.41 2.583 6.66 3.88 12.754 1.292 6.096 2.124 12.84 2.497 20.233.924 13.488.924 25.03 0 34.646-.924 9.613-1.8 17.092-2.63 22.44-.834 5.362-2.082 9.7-3.74 13.024-1.666 3.335-2.773 5.367-3.33 6.107-.557.735-1.016 1.2-1.383 1.385a20.804 20.804 0 0 1-7.484 1.383c-2.59 0-5.73-1.298-9.425-3.887-3.696-2.575-7.533-6.137-11.5-10.666-3.977-4.522-8.45-10.856-13.445-18.99-4.988-8.12-10.166-17.736-15.52-28.82l-4.432-8.04c-2.772-5.166-6.56-12.7-11.365-22.584s-9.058-19.443-12.748-28.69c-1.48-3.874-3.697-6.83-6.652-8.868l-1.383-.832c-.924-.735-2.405-1.524-4.437-2.35a29.865 29.865 0 0 0-6.377-1.806l-75.942.55c-7.76 0-13.023 1.764-15.795 5.276l-1.108 1.66c-.56.93-.835 2.41-.835 4.436 0 2.038.557 4.53 1.665 7.48 11.09 26.058 23.146 51.187 36.17 75.385 13.03 24.212 24.345 43.71 33.953 58.49 9.608 14.792 19.4 28.733 29.382 41.854 9.982 13.12 16.585 21.523 19.816 25.214 3.23 3.703 5.77 6.476 7.62 8.317l6.928 6.658c4.43 4.432 10.95 9.743 19.542 15.937 8.592 6.193 18.103 12.29 28.55 18.287 10.435 6.01 22.59 10.9 36.444 14.694 13.856 3.795 27.344 5.318 40.465 4.572h31.874c6.468-.55 11.362-2.576 14.687-6.096l1.107-1.383c.734-1.102 1.432-2.815 2.08-5.123.643-2.307.975-4.853.975-7.62-.192-7.942.415-15.115 1.798-21.48 1.383-6.377 2.955-11.175 4.713-14.418 1.757-3.226 3.74-5.955 5.96-8.177 2.217-2.222 3.783-3.55 4.713-4.015.924-.453 1.666-.777 2.217-.973 4.43-1.476 9.65-.043 15.66 4.296 6.004 4.352 11.64 9.7 16.91 16.077 5.262 6.377 11.59 13.53 18.984 21.48 7.387 7.944 13.855 13.856 19.4 17.736l5.545 3.336c3.694 2.21 8.493 4.24 14.41 6.096 5.913 1.842 11.09 2.307 15.52 1.383l70.956-1.113c7.02 0 12.473-1.15 16.354-3.464 3.88-2.295 6.188-4.853 6.928-7.62.734-2.77.783-5.898.14-9.418-.647-3.507-1.296-5.955-1.938-7.338-.648-1.383-1.25-2.546-1.807-3.464-9.24-16.628-26.885-37.05-52.938-61.255l-.557-.55-.275-.282-.275-.27h-.278c-11.83-11.273-19.31-18.85-22.45-22.736-5.726-7.38-7.024-14.865-3.878-22.44 2.203-5.746 10.514-17.85 24.926-36.334z"/></svg><svg viewBox="0 0 612 612" width="612" height="612" id="social-1" y="3832"><path d="M612 116.258a250.714 250.714 0 0 1-72.088 19.772c25.93-15.527 45.777-40.155 55.184-69.41-24.322 14.378-51.17 24.82-79.775 30.48-22.906-24.438-55.49-39.66-91.63-39.66-69.333 0-125.55 56.218-125.55 125.514 0 9.828 1.11 19.427 3.25 28.606-104.325-5.24-196.834-55.223-258.75-131.174-10.822 18.51-16.98 40.078-16.98 63.1 0 43.56 22.182 81.994 55.836 104.48A125.556 125.556 0 0 1 24.63 232.21v1.568c0 60.806 43.29 111.554 100.692 123.104-10.517 2.83-21.607 4.398-33.08 4.398-8.107 0-15.947-.803-23.634-2.333 15.985 49.907 62.336 86.2 117.253 87.194-42.946 33.655-97.098 53.656-155.915 53.656-10.134 0-20.116-.612-29.944-1.72 55.568 35.68 121.537 56.484 192.44 56.484 230.947 0 357.187-191.29 357.187-357.188l-.42-16.253C573.87 163.525 595.21 141.42 612 116.257z" fill="#010002"/></svg><svg width="511.626" height="511.626" viewBox="0 0 511.626 511.626" id="social-2" y="4444"><path d="M301.927 327.605c30.926-13.038 55.34-30.785 73.23-53.248 17.888-22.458 26.833-46.915 26.833-73.372 0-26.458-8.945-50.917-26.84-73.376-17.888-22.46-42.298-40.21-73.228-53.25-30.93-13.04-64.57-19.556-100.928-19.556-36.354 0-69.995 6.52-100.927 19.556-30.93 13.04-55.34 30.79-73.23 53.25C8.948 150.07 0 174.526 0 200.985c0 22.648 6.767 43.975 20.28 63.96 13.512 19.98 32.07 36.83 55.67 50.53-1.9 4.573-3.852 8.755-5.85 12.567a72.375 72.375 0 0 1-7.14 10.99 984.53 984.53 0 0 0-6.423 8.276c-1.523 1.997-3.997 4.81-7.425 8.42-3.427 3.618-5.617 5.997-6.567 7.136 0-.19-.38.24-1.143 1.287s-1.19 1.52-1.285 1.43c-.096-.102-.477.374-1.143 1.42l-1 1.572-.715 1.423a6.114 6.114 0 0 0-.57 1.712c-.097.567-.145 1.19-.145 1.854s.094 1.28.288 1.854c.38 2.47 1.475 4.466 3.283 5.996 1.807 1.52 3.756 2.28 5.852 2.28h.857c9.515-1.333 17.7-2.855 24.552-4.57 29.312-7.61 55.77-19.797 79.372-36.545 17.128 3.045 33.878 4.567 50.246 4.567 36.357.013 70.002-6.502 100.93-19.542z"/><path d="M491.354 338.166c13.518-19.89 20.272-41.247 20.272-64.09 0-23.414-7.146-45.316-21.416-65.68-14.277-20.362-33.694-37.305-58.245-50.82 4.374 14.275 6.563 28.74 6.563 43.4 0 25.502-6.368 49.675-19.13 72.518-12.75 22.836-31.024 43.01-54.815 60.524-22.08 15.988-47.205 28.26-75.377 36.83-28.164 8.56-57.573 12.847-88.218 12.847-5.708 0-14.084-.377-25.122-1.137 38.256 25.12 83.177 37.685 134.756 37.685 16.37 0 33.12-1.526 50.25-4.57 23.6 16.754 50.06 28.93 79.37 36.548 6.853 1.72 15.038 3.238 24.555 4.57 2.283.19 4.38-.477 6.283-2 1.903-1.522 3.142-3.61 3.71-6.272-.09-1.143 0-1.77.287-1.86.28-.09.233-.713-.144-1.853-.376-1.144-.568-1.715-.568-1.715l-.712-1.424a13.68 13.68 0 0 0-1-1.567c-.475-.66-.854-1.144-1.142-1.428-.28-.284-.704-.763-1.28-1.424-.567-.66-.95-1.092-1.142-1.283-.95-1.143-3.14-3.52-6.564-7.14-3.43-3.612-5.9-6.42-7.422-8.417a867.888 867.888 0 0 0-6.424-8.282 72.21 72.21 0 0 1-7.14-10.99c-1.997-3.807-3.948-7.996-5.85-12.56 23.6-13.717 42.155-30.514 55.666-50.41z"/></svg><svg viewBox="0 0 415.703 415.703" width="415.703" height="415.703" id="social-3" y="4956"><path d="M207.856 210.23c-17.932 0-32.514-14.584-32.514-32.507 0-17.932 14.583-32.522 32.514-32.522s32.514 14.592 32.514 32.523c0 17.924-14.583 32.506-32.514 32.506zm0-48.772c-8.966 0-16.257 7.29-16.257 16.265 0 8.958 7.29 16.25 16.256 16.25 8.966 0 16.257-7.292 16.257-16.25 0-8.966-7.29-16.265-16.257-16.265zm81.286 48.77c-17.932 0-32.514-14.582-32.514-32.505 0-17.932 14.583-32.522 32.514-32.522s32.514 14.592 32.514 32.523c0 17.924-14.583 32.506-32.514 32.506zm0-48.77c-8.966 0-16.257 7.29-16.257 16.265 0 8.958 7.29 16.25 16.257 16.25s16.257-7.292 16.257-16.25c0-8.966-7.293-16.265-16.258-16.265zm-162.572 48.77c-17.932 0-32.514-14.582-32.514-32.505 0-17.932 14.583-32.522 32.514-32.522s32.514 14.592 32.514 32.523c0 17.924-14.582 32.506-32.514 32.506zm0-48.77c-8.966 0-16.257 7.29-16.257 16.265 0 8.958 7.29 16.25 16.257 16.25s16.257-7.292 16.257-16.25c0-8.966-7.29-16.265-16.257-16.265z" fill="#010002"/><path d="M352.82 392.846l-78.554-78.555H0V22.86h415.703v291.434H352.82v78.554zM16.258 298.034h264.74l55.567 55.567v-55.566h62.883V39.114H16.257v258.92z" fill="#010002"/></svg><svg viewBox="0 0 32.001 32.001" width="32.001" height="32.001" id="technology" y="5372"><circle cx="4.002" cy="28" r="4.001" fill="#030104"/><path d="M6.023 20.004c3.31 0 6 2.69 6 6.004h4.002C16.025 20.492 11.537 16 6.023 16v4.004z" fill="#030104"/><path d="M5.996 12c7.72 0 14.002 6.285 14.002 14.008H24C24 16.078 15.924 8 5.996 8v4z" fill="#030104"/><path d="M5.996 4C18.13 4 28 13.87 28 26.008h4C32 11.664 20.337 0 5.996 0v4z" fill="#030104"/></svg><svg viewBox="0 0 199.448 199.448" width="199.448" height="199.448" id="time" y="5405"><path d="M189.78 101.43c0-49.33-40.125-89.46-89.46-89.46-49.33 0-89.468 40.126-89.468 89.46 0 28.664 13.56 54.203 34.59 70.59l-21.83 21.835a3.205 3.205 0 0 0 0 4.545c.63.63 1.448.938 2.264.938a3.2 3.2 0 0 0 2.28-.938l22.547-22.554c14.208 9.498 31.272 15.056 49.617 15.056 19.487 0 37.517-6.28 52.23-16.9l24.383 24.394a3.19 3.19 0 0 0 2.276.938 3.19 3.19 0 0 0 2.268-.938 3.205 3.205 0 0 0 0-4.545l-23.81-23.82c19.612-16.416 32.113-41.07 32.113-68.6zm-89.46 83.048c-45.794 0-83.046-37.25-83.046-83.047 0-45.787 37.25-83.035 83.047-83.035 45.79 0 83.037 37.25 83.037 83.036 0 45.796-37.245 83.048-83.036 83.048z" fill="#010002"/><path d="M13.218 65.02c.247 0 .487-.03.727-.075a3.217 3.217 0 0 0 2.316-2.086c.07-.173 6.278-17.906 18.135-29.752 11.778-11.79 28.026-16.62 28.187-16.667a3.2 3.2 0 0 0 2.212-2.286 3.185 3.185 0 0 0-.837-3.067C56.877 4.004 47.472.11 37.454.11c-10.014 0-19.42 3.897-26.498 10.976-14.61 14.61-14.61 38.383 0 53a3.217 3.217 0 0 0 2.262.934zm2.277-49.388C21.353 9.762 29.16 6.53 37.447 6.53c6.51 0 12.712 1.993 17.916 5.68-6.277 2.527-16.85 7.68-25.517 16.34-8.94 8.94-14.788 20.554-17.64 27.122-8.697-12.122-7.602-29.16 3.29-40.04zm121.35.808c.166.05 16.37 4.842 28.188 16.667 11.857 11.846 18.08 29.58 18.134 29.75a3.218 3.218 0 0 0 2.312 2.087c.24.05.48.075.726.075a3.25 3.25 0 0 0 2.27-.935c7.078-7.08 10.972-16.495 10.972-26.51 0-10.002-3.897-19.41-10.973-26.49C181.392 4.005 171.99.11 161.973.11c-10.014 0-19.42 3.897-26.498 10.976a3.2 3.2 0 0 0-.837 3.067 3.184 3.184 0 0 0 2.208 2.287zm25.132-9.91c8.29 0 16.094 3.232 21.956 9.1 5.873 5.863 9.1 13.654 9.1 21.947 0 6.596-2.04 12.866-5.81 18.095-2.853-6.556-8.705-18.17-17.64-27.12-8.662-8.662-19.23-13.82-25.522-16.342 5.205-3.686 11.407-5.68 17.917-5.68zm-60.805 29.598a3.215 3.215 0 0 0-3.22 3.21v58.88H45.37a3.214 3.214 0 0 0-3.21 3.22 3.212 3.212 0 0 0 3.21 3.21h55.8a3.212 3.212 0 0 0 3.21-3.21v-62.1a3.213 3.213 0 0 0-3.21-3.21z" fill="#010002"/></svg><svg width="919.8" height="919.8" viewBox="0 0 919.8 919.8" id="tool" y="5605"><path d="M684.833 209.4l27-33.8c37-46.2 29.5-113.7-16.8-150.7l-1.7-1.4c-46.2-37-113.7-29.5-150.7 16.8l-26.9 33.7 169.1 135.4z"/><path d="M520.532 493.5c.9 8.2 5 16 11.9 21.6 13.9 11.1 34.2 8.9 45.3-5l185.5-232c11.3-14.1 8.8-34.8-5.7-45.8-14-10.6-34.1-7.6-45.1 6.1l-18.1 22.6-31-24.8.1-.1-169-135.5-432.4 540.5 169.1 135.4 392.1-490 31 24.8-126.8 158.5c-5.6 6.9-7.8 15.5-6.9 23.7zm-317.5 308l-159.3-127.6c-2.6 8.9-3.9 16.7-3.9 16.7l-36.5 174.8c-2.6 12.6 10.2 22.9 21.9 17.5l162.6-74c-.1 0 7.1-3 15.2-7.4zm690.6 31.3c-1.4 0-2.7.1-4.1.3l-245.7 31.8c-12.6 1.6-21.4-12.2-14.6-23 3.7-5.7 7.3-11.5 10.9-17.3 9.5-15.4-3.2-35.9-20.8-35.9-1.2 0-2.4.1-3.7.3l-322 48.4-38.5 5.8-105 15.8c-11.9 1.8-19.9 11.9-18.9 24 .4 5.4 2.6 10.5 6.1 14.3 4.1 4.5 9.8 7 16 7 1.2 0 2.4-.1 3.7-.3l383.8-57.7c13.1-2 22.1 12.8 14.4 23.6-2.5 3.4-5 6.9-7.5 10.3-6.9 9.4-5.3 25.102 2.7 33.2 4.1 4.2 9.3 6.4 14.8 6.4.6 0 1.3 0 1.9-.1h.2l331.3-42.2h.202c5.7-.9 10.7-4.2 14-9.3 3.6-5.6 4.9-12.5 3.3-18.7-2.602-10.1-11.402-16.7-22.5-16.7z"/></svg></svg>