<svg style="position: absolute; width: 0; height: 0;" width="0" height="0" version="1.1" xmlns="http://www.w3.org/2000/svg" xmlns:xlink="http://www.w3.org/1999/xlink">
<defs>
<symbol id="icon-connection" viewBox="0 0 20 16">
<title>connection</title>
<path class="path1" d="M10 9c1.654 0 3.154 0.673 4.241 1.759l-1.414 1.414c-0.724-0.724-1.724-1.173-2.827-1.173s-2.103 0.449-2.827 1.173l-1.414-1.414c1.086-1.086 2.586-1.759 4.241-1.759zM2.929 7.929c1.889-1.889 4.4-2.929 7.071-2.929s5.182 1.040 7.071 2.929l-1.414 1.414c-1.511-1.511-3.52-2.343-5.657-2.343s-4.146 0.832-5.657 2.343l-1.414-1.414zM15.45 2.101c1.667 0.705 3.164 1.715 4.45 3v0l-1.414 1.414c-2.267-2.266-5.28-3.515-8.485-3.515s-6.219 1.248-8.485 3.515l-1.414-1.414c1.285-1.285 2.783-2.295 4.45-3 1.727-0.73 3.56-1.101 5.45-1.101s3.723 0.37 5.45 1.101zM9 14c0-0.552 0.448-1 1-1s1 0.448 1 1c0 0.552-0.448 1-1 1s-1-0.448-1-1z"></path>
</symbol>
<symbol id="icon-price-tags" viewBox="0 0 20 16">
<title>price-tags</title>
<path class="path1" d="M19.25 0h-6c-0.412 0-0.989 0.239-1.28 0.53l-7.439 7.439c-0.292 0.292-0.292 0.769 0 1.061l6.439 6.439c0.292 0.292 0.769 0.292 1.061 0l7.439-7.439c0.292-0.292 0.53-0.868 0.53-1.28v-6c0-0.412-0.337-0.75-0.75-0.75zM15.5 6c-0.828 0-1.5-0.672-1.5-1.5s0.672-1.5 1.5-1.5 1.5 0.672 1.5 1.5-0.672 1.5-1.5 1.5z"></path>
<path class="path2" d="M2 8.5l8.5-8.5h-1.25c-0.412 0-0.989 0.239-1.28 0.53l-7.439 7.439c-0.292 0.292-0.292 0.769 0 1.061l6.439 6.439c0.292 0.292 0.769 0.292 1.061 0l0.47-0.47-6.5-6.5z"></path>
</symbol>
<symbol id="icon-cart" viewBox="0 0 16 16">
<title>cart</title>
<path class="path1" d="M6 14.5c0 0.828-0.672 1.5-1.5 1.5s-1.5-0.672-1.5-1.5c0-0.828 0.672-1.5 1.5-1.5s1.5 0.672 1.5 1.5z"></path>
<path class="path2" d="M16 14.5c0 0.828-0.672 1.5-1.5 1.5s-1.5-0.672-1.5-1.5c0-0.828 0.672-1.5 1.5-1.5s1.5 0.672 1.5 1.5z"></path>
<path class="path3" d="M16 8v-6h-12c0-0.552-0.448-1-1-1h-3v1h2l0.751 6.438c-0.458 0.367-0.751 0.93-0.751 1.562 0 1.105 0.895 2 2 2h12v-1h-12c-0.552 0-1-0.448-1-1 0-0.003 0-0.007 0-0.010l13-1.99z"></path>
</symbol>
<symbol id="icon-phone" viewBox="0 0 16 16">
<title>phone</title>
<path class="path1" d="M11 10c-1 1-1 2-2 2s-2-1-3-2-2-2-2-3 1-1 2-2-2-4-3-4-3 3-3 3c0 2 2.055 6.055 4 8s6 4 8 4c0 0 3-2 3-3s-3-4-4-3z"></path>
</symbol>
<symbol id="icon-envelop" viewBox="0 0 16 16">
<title>envelop</title>
<path class="path1" d="M14.5 2h-13c-0.825 0-1.5 0.675-1.5 1.5v10c0 0.825 0.675 1.5 1.5 1.5h13c0.825 0 1.5-0.675 1.5-1.5v-10c0-0.825-0.675-1.5-1.5-1.5zM6.23 8.6l-4.23 3.295v-7.838l4.23 4.543zM2.756 4h10.488l-5.244 3.938-5.244-3.938zM6.395 8.777l1.605 1.723 1.605-1.723 3.29 4.223h-9.79l3.29-4.223zM9.77 8.6l4.23-4.543v7.838l-4.23-3.295z"></path>
</symbol>
<symbol id="icon-location2" viewBox="0 0 16 16">
<title>location2</title>
<path class="path1" d="M8 0c-2.761 0-5 2.239-5 5 0 5 5 11 5 11s5-6 5-11c0-2.761-2.239-5-5-5zM8 8.063c-1.691 0-3.063-1.371-3.063-3.063s1.371-3.063 3.063-3.063 3.063 1.371 3.063 3.063-1.371 3.063-3.063 3.063zM6.063 5c0-1.070 0.867-1.938 1.938-1.938s1.938 0.867 1.938 1.938c0 1.070-0.867 1.938-1.938 1.938s-1.938-0.867-1.938-1.938z"></path>
</symbol>
<symbol id="icon-bubble2" viewBox="0 0 16 16">
<title>bubble2</title>
<path class="path1" d="M8 3c-0.858 0-1.687 0.135-2.464 0.402-0.73 0.251-1.38 0.605-1.932 1.054-1.035 0.841-1.604 1.922-1.604 3.044 0 0.63 0.175 1.24 0.52 1.815 0.356 0.592 0.89 1.134 1.547 1.566 0.474 0.312 0.793 0.812 0.878 1.373 0.028 0.187 0.046 0.376 0.053 0.564 0.117-0.097 0.23-0.201 0.342-0.312 0.377-0.377 0.887-0.586 1.414-0.586 0.084 0 0.168 0.005 0.252 0.016 0.328 0.042 0.662 0.063 0.995 0.063 0.858 0 1.687-0.135 2.464-0.402 0.73-0.251 1.38-0.605 1.932-1.054 1.035-0.841 1.604-1.922 1.604-3.044s-0.57-2.203-1.604-3.044c-0.552-0.448-1.202-0.803-1.932-1.054-0.777-0.267-1.606-0.402-2.464-0.402zM8 1v0c4.418 0 8 2.91 8 6.5s-3.582 6.5-8 6.5c-0.424 0-0.841-0.027-1.247-0.079-1.718 1.718-3.77 2.027-5.753 2.072v-0.421c1.071-0.525 2-1.48 2-2.572 0-0.152-0.012-0.302-0.034-0.448-1.809-1.192-2.966-3.012-2.966-5.052 0-3.59 3.582-6.5 8-6.5z"></path>
</symbol>
<symbol id="icon-user" viewBox="0 0 16 16">
<title>user</title>
<path class="path1" d="M9 11.041v-0.825c1.102-0.621 2-2.168 2-3.716 0-2.485 0-4.5-3-4.5s-3 2.015-3 4.5c0 1.548 0.898 3.095 2 3.716v0.825c-3.392 0.277-6 1.944-6 3.959h14c0-2.015-2.608-3.682-6-3.959z"></path>
</symbol>
<symbol id="icon-cog" viewBox="0 0 16 16">
<title>cog</title>
<path class="path1" d="M14.59 9.535c-0.839-1.454-0.335-3.317 1.127-4.164l-1.572-2.723c-0.449 0.263-0.972 0.414-1.529 0.414-1.68 0-3.042-1.371-3.042-3.062h-3.145c0.004 0.522-0.126 1.051-0.406 1.535-0.839 1.454-2.706 1.948-4.17 1.106l-1.572 2.723c0.453 0.257 0.845 0.634 1.123 1.117 0.838 1.452 0.336 3.311-1.12 4.16l1.572 2.723c0.448-0.261 0.967-0.41 1.522-0.41 1.675 0 3.033 1.362 3.042 3.046h3.145c-0.001-0.517 0.129-1.040 0.406-1.519 0.838-1.452 2.7-1.947 4.163-1.11l1.572-2.723c-0.45-0.257-0.839-0.633-1.116-1.113zM8 11.24c-1.789 0-3.24-1.45-3.24-3.24s1.45-3.24 3.24-3.24c1.789 0 3.24 1.45 3.24 3.24s-1.45 3.24-3.24 3.24z"></path>
</symbol>
<symbol id="icon-circle-right" viewBox="0 0 16 16">
<title>circle-right</title>
<path class="path1" d="M8 0c-4.418 0-8 3.582-8 8s3.582 8 8 8 8-3.582 8-8-3.582-8-8-8zM8 14.5c-3.59 0-6.5-2.91-6.5-6.5s2.91-6.5 6.5-6.5 6.5 2.91 6.5 6.5-2.91 6.5-6.5 6.5z"></path>
<path class="path2" d="M5.543 11.043l1.414 1.414 4.457-4.457-4.457-4.457-1.414 1.414 3.043 3.043z"></path>
</symbol>
<symbol id="icon-circle-left" viewBox="0 0 16 16">
<title>circle-left</title>
<path class="path1" d="M8 16c4.418 0 8-3.582 8-8s-3.582-8-8-8-8 3.582-8 8 3.582 8 8 8zM8 1.5c3.59 0 6.5 2.91 6.5 6.5s-2.91 6.5-6.5 6.5-6.5-2.91-6.5-6.5 2.91-6.5 6.5-6.5z"></path>
<path class="path2" d="M10.457 4.957l-1.414-1.414-4.457 4.457 4.457 4.457 1.414-1.414-3.043-3.043z"></path>
</symbol>
<symbol id="icon-google-plus" viewBox="0 0 16 16">
<title>google-plus</title>
<path class="path1" d="M5.091 7.147v1.747h2.888c-0.116 0.75-0.872 2.197-2.888 2.197-1.737 0-3.156-1.441-3.156-3.216s1.419-3.216 3.156-3.216c0.991 0 1.65 0.422 2.028 0.784l1.381-1.331c-0.888-0.828-2.037-1.331-3.409-1.331-2.816 0.003-5.091 2.278-5.091 5.094s2.275 5.091 5.091 5.091c2.937 0 4.888-2.066 4.888-4.975 0-0.334-0.037-0.591-0.081-0.844h-4.806z"></path>
<path class="path2" d="M16 7h-1.5v-1.5h-1.5v1.5h-1.5v1.5h1.5v1.5h1.5v-1.5h1.5z"></path>
</symbol>
<symbol id="icon-google-plus2" viewBox="0 0 16 16">
<title>google-plus2</title>
<path class="path1" d="M14.5 0h-13c-0.825 0-1.5 0.675-1.5 1.5v13c0 0.825 0.675 1.5 1.5 1.5h13c0.825 0 1.5-0.675 1.5-1.5v-13c0-0.825-0.675-1.5-1.5-1.5zM6 12c-2.212 0-4-1.787-4-4s1.788-4 4-4c1.081 0 1.984 0.394 2.681 1.047l-1.088 1.044c-0.297-0.284-0.816-0.616-1.594-0.616-1.366 0-2.481 1.131-2.481 2.525s1.116 2.525 2.481 2.525c1.584 0 2.178-1.137 2.269-1.725h-2.269v-1.372h3.778c0.034 0.2 0.063 0.4 0.063 0.663 0 2.287-1.531 3.909-3.841 3.909zM14 8h-1v1h-1v-1h-1v-1h1v-1h1v1h1v1z"></path>
</symbol>
<symbol id="icon-facebook2" viewBox="0 0 16 16">
<title>facebook2</title>
<path class="path1" d="M14.5 0h-13c-0.825 0-1.5 0.675-1.5 1.5v13c0 0.825 0.675 1.5 1.5 1.5h6.5v-7h-2v-2h2v-1c0-1.653 1.347-3 3-3h2v2h-2c-0.55 0-1 0.45-1 1v1h3l-0.5 2h-2.5v7h4.5c0.825 0 1.5-0.675 1.5-1.5v-13c0-0.825-0.675-1.5-1.5-1.5z"></path>
</symbol>
<symbol id="icon-twitter" viewBox="0 0 16 16">
<title>twitter</title>
<path class="path1" d="M16 3.538c-0.588 0.263-1.222 0.438-1.884 0.516 0.678-0.406 1.197-1.050 1.444-1.816-0.634 0.375-1.338 0.65-2.084 0.797-0.6-0.638-1.453-1.034-2.397-1.034-1.813 0-3.281 1.469-3.281 3.281 0 0.256 0.028 0.506 0.084 0.747-2.728-0.138-5.147-1.444-6.766-3.431-0.281 0.484-0.444 1.050-0.444 1.65 0 1.138 0.578 2.144 1.459 2.731-0.538-0.016-1.044-0.166-1.488-0.409 0 0.013 0 0.028 0 0.041 0 1.591 1.131 2.919 2.634 3.219-0.275 0.075-0.566 0.116-0.866 0.116-0.212 0-0.416-0.022-0.619-0.059 0.419 1.303 1.631 2.253 3.066 2.281-1.125 0.881-2.538 1.406-4.078 1.406-0.266 0-0.525-0.016-0.784-0.047 1.456 0.934 3.181 1.475 5.034 1.475 6.037 0 9.341-5.003 9.341-9.341 0-0.144-0.003-0.284-0.009-0.425 0.641-0.459 1.197-1.038 1.637-1.697z"></path>
</symbol>
<symbol id="icon-vk" viewBox="0 0 16 16">
<title>vk</title>
<path class="path1" d="M14.5 0h-13c-0.825 0-1.5 0.675-1.5 1.5v13c0 0.825 0.675 1.5 1.5 1.5h13c0.825 0 1.5-0.675 1.5-1.5v-13c0-0.825-0.675-1.5-1.5-1.5zM12.959 11.2l-1.463 0.022c0 0-0.316 0.063-0.728-0.222-0.547-0.375-1.063-1.353-1.466-1.225-0.406 0.128-0.394 1.006-0.394 1.006s0.003 0.188-0.091 0.287c-0.1 0.109-0.3 0.131-0.3 0.131h-0.653c0 0-1.444 0.088-2.716-1.238-1.388-1.444-2.612-4.309-2.612-4.309s-0.072-0.188 0.006-0.278c0.087-0.103 0.322-0.109 0.322-0.109l1.566-0.009c0 0 0.147 0.025 0.253 0.103 0.088 0.063 0.134 0.184 0.134 0.184s0.253 0.641 0.588 1.219c0.653 1.128 0.959 1.375 1.181 1.256 0.322-0.175 0.225-1.597 0.225-1.597s0.006-0.516-0.162-0.744c-0.131-0.178-0.378-0.231-0.484-0.244-0.088-0.013 0.056-0.216 0.244-0.309 0.281-0.138 0.778-0.147 1.366-0.141 0.456 0.003 0.591 0.034 0.769 0.075 0.541 0.131 0.356 0.634 0.356 1.841 0 0.388-0.069 0.931 0.209 1.109 0.119 0.078 0.412 0.012 1.147-1.234 0.347-0.591 0.609-1.284 0.609-1.284s0.056-0.125 0.144-0.178c0.091-0.053 0.213-0.037 0.213-0.037l1.647-0.009c0 0 0.494-0.059 0.575 0.166 0.084 0.234-0.184 0.781-0.856 1.678-1.103 1.472-1.228 1.334-0.309 2.184 0.875 0.813 1.056 1.209 1.088 1.259 0.356 0.6-0.406 0.647-0.406 0.647z"></path>
</symbol>
<symbol id="icon-rss" viewBox="0 0 16 16">
<title>rss</title>
<path class="path1" d="M2.13 11.733c-1.175 0-2.13 0.958-2.13 2.126 0 1.174 0.955 2.122 2.13 2.122 1.179 0 2.133-0.948 2.133-2.122-0-1.168-0.954-2.126-2.133-2.126zM0.002 5.436v3.067c1.997 0 3.874 0.781 5.288 2.196 1.412 1.411 2.192 3.297 2.192 5.302h3.080c-0-5.825-4.739-10.564-10.56-10.564zM0.006 0v3.068c7.122 0 12.918 5.802 12.918 12.932h3.076c0-8.82-7.176-16-15.994-16z"></path>
</symbol>
<symbol id="icon-github" viewBox="0 0 16 16">
<title>github</title>
<path class="path1" d="M8 0.198c-4.418 0-8 3.582-8 8 0 3.535 2.292 6.533 5.471 7.591 0.4 0.074 0.547-0.174 0.547-0.385 0-0.191-0.008-0.821-0.011-1.489-2.226 0.484-2.695-0.944-2.695-0.944-0.364-0.925-0.888-1.171-0.888-1.171-0.726-0.497 0.055-0.486 0.055-0.486 0.803 0.056 1.226 0.824 1.226 0.824 0.714 1.223 1.872 0.869 2.328 0.665 0.072-0.517 0.279-0.87 0.508-1.070-1.777-0.202-3.645-0.888-3.645-3.954 0-0.873 0.313-1.587 0.824-2.147-0.083-0.202-0.357-1.015 0.077-2.117 0 0 0.672-0.215 2.201 0.82 0.638-0.177 1.322-0.266 2.002-0.269 0.68 0.003 1.365 0.092 2.004 0.269 1.527-1.035 2.198-0.82 2.198-0.82 0.435 1.102 0.162 1.916 0.079 2.117 0.513 0.56 0.823 1.274 0.823 2.147 0 3.073-1.872 3.749-3.653 3.947 0.287 0.248 0.543 0.735 0.543 1.481 0 1.070-0.009 1.932-0.009 2.195 0 0.213 0.144 0.462 0.55 0.384 3.177-1.059 5.466-4.057 5.466-7.59 0-4.418-3.582-8-8-8z"></path>
</symbol>
<symbol id="icon-git" viewBox="0 0 16 16">
<title>git</title>
<path class="path1" d="M15.698 7.287l-6.986-6.986c-0.402-0.402-1.055-0.402-1.457 0l-1.623 1.623 1.221 1.221c0.196-0.094 0.415-0.146 0.647-0.146 0.828 0 1.5 0.672 1.5 1.5 0 0.232-0.053 0.451-0.146 0.647l2 2c0.196-0.094 0.415-0.146 0.647-0.146 0.828 0 1.5 0.672 1.5 1.5s-0.672 1.5-1.5 1.5-1.5-0.672-1.5-1.5c0-0.232 0.053-0.451 0.146-0.647l-2-2c-0.048 0.023-0.097 0.043-0.147 0.061v4.171c0.583 0.206 1 0.761 1 1.414 0 0.828-0.672 1.5-1.5 1.5s-1.5-0.672-1.5-1.5c0-0.653 0.417-1.208 1-1.414v-4.171c-0.583-0.206-1-0.761-1-1.414 0-0.232 0.053-0.451 0.146-0.647l-1.221-1.221-4.623 4.623c-0.402 0.403-0.402 1.055 0 1.458l6.986 6.986c0.402 0.402 1.054 0.402 1.457 0l6.953-6.953c0.402-0.403 0.402-1.055-0-1.458z"></path>
</symbol>
<symbol id="icon-codepen" viewBox="0 0 16 16">
<title>codepen</title>
<path class="path1" d="M14.777 5.751l-7-4.667c-0.168-0.112-0.387-0.112-0.555 0l-7 4.667c-0.139 0.093-0.223 0.249-0.223 0.416v4.667c0 0.167 0.084 0.323 0.223 0.416l7 4.667c0.084 0.056 0.181 0.084 0.277 0.084s0.193-0.028 0.277-0.084l7-4.667c0.139-0.093 0.223-0.249 0.223-0.416v-4.667c0-0.167-0.084-0.323-0.223-0.416zM7.5 10.232l-2.599-1.732 2.599-1.732 2.599 1.732-2.599 1.732zM8 5.899v-3.465l5.599 3.732-2.599 1.732-3-2zM7 5.899l-3 2-2.599-1.732 5.599-3.732v3.465zM3.099 8.5l-2.099 1.399v-2.798l2.099 1.399zM4 9.101l3 2v3.465l-5.599-3.732 2.599-1.732zM8 11.101l3-2 2.599 1.732-5.599 3.732v-3.465zM11.901 8.5l2.099-1.399v2.798l-2.099-1.399z"></path>
</symbol>
</defs>
</svg>
